<svg xmlns="http://www.w3.org/2000/svg" width="760" height="220" viewBox="0 0 760 220" fill="none" role="img" aria-label="Contribution Activity — Last 31 Days">
  <rect width="759" height="219" x="0.5" y="0.5" rx="6" fill="#1a1b27" stroke="#2a2c3f"/>
  <text x="24" y="33" fill="#70a5fd" font-family="'Segoe UI', Ubuntu, sans-serif" font-size="16" font-weight="600">Contribution Activity — Last 31 Days</text>
  <path d="M24,190 L24.0,180.7 L47.7,190.0 L71.5,180.7 L95.2,190.0 L118.9,180.7 L142.7,190.0 L166.4,190.0 L190.1,125.0 L213.9,190.0 L237.6,152.9 L261.3,190.0 L285.1,190.0 L308.8,190.0 L332.5,180.7 L356.3,152.9 L380.0,171.4 L403.7,190.0 L427.5,190.0 L451.2,190.0 L474.9,190.0 L498.7,190.0 L522.4,190.0 L546.1,190.0 L569.9,190.0 L593.6,190.0 L617.3,190.0 L641.1,190.0 L664.8,171.4 L688.5,60.0 L712.3,125.0 L736.0,190.0 L736,190 Z" fill="#70a5fd" fill-opacity="0.25"/>
  <polyline points="24.0,180.7 47.7,190.0 71.5,180.7 95.2,190.0 118.9,180.7 142.7,190.0 166.4,190.0 190.1,125.0 213.9,190.0 237.6,152.9 261.3,190.0 285.1,190.0 308.8,190.0 332.5,180.7 356.3,152.9 380.0,171.4 403.7,190.0 427.5,190.0 451.2,190.0 474.9,190.0 498.7,190.0 522.4,190.0 546.1,190.0 569.9,190.0 593.6,190.0 617.3,190.0 641.1,190.0 664.8,171.4 688.5,60.0 712.3,125.0 736.0,190.0" stroke="#70a5fd" stroke-width="2" fill="none"/>
  <text x="24" y="208" fill="#9aa5ce" font-family="'Segoe UI', Ubuntu, sans-serif" font-size="11">2026-06-03</text>
  <text x="736" y="208" text-anchor="end" fill="#9aa5ce" font-family="'Segoe UI', Ubuntu, sans-serif" font-size="11">2026-07-03</text>
</svg>