<svg xmlns="http://www.w3.org/2000/svg" width="760" height="220" viewBox="0 0 760 220" fill="none" role="img" aria-label="Contribution Activity — Last 31 Days">
  <rect width="759" height="219" x="0.5" y="0.5" rx="6" fill="#1a1b27" stroke="#2a2c3f"/>
  <text x="24" y="33" fill="#70a5fd" font-family="'Segoe UI', Ubuntu, sans-serif" font-size="16" font-weight="600">Contribution Activity — Last 31 Days</text>
  <path d="M24,190 L24.0,190.0 L47.7,190.0 L71.5,190.0 L95.2,190.0 L118.9,190.0 L142.7,190.0 L166.4,185.2 L190.1,156.3 L213.9,173.1 L237.6,190.0 L261.3,187.6 L285.1,182.8 L308.8,182.8 L332.5,182.8 L356.3,185.2 L380.0,185.2 L403.7,185.2 L427.5,190.0 L451.2,190.0 L474.9,170.7 L498.7,108.1 L522.4,139.4 L546.1,76.9 L569.9,151.5 L593.6,125.0 L617.3,158.7 L641.1,187.6 L664.8,81.7 L688.5,60.0 L712.3,175.6 L736.0,185.2 L736,190 Z" fill="#70a5fd" fill-opacity="0.25"/>
  <polyline points="24.0,190.0 47.7,190.0 71.5,190.0 95.2,190.0 118.9,190.0 142.7,190.0 166.4,185.2 190.1,156.3 213.9,173.1 237.6,190.0 261.3,187.6 285.1,182.8 308.8,182.8 332.5,182.8 356.3,185.2 380.0,185.2 403.7,185.2 427.5,190.0 451.2,190.0 474.9,170.7 498.7,108.1 522.4,139.4 546.1,76.9 569.9,151.5 593.6,125.0 617.3,158.7 641.1,187.6 664.8,81.7 688.5,60.0 712.3,175.6 736.0,185.2" stroke="#70a5fd" stroke-width="2" fill="none"/>
  <text x="24" y="208" fill="#9aa5ce" font-family="'Segoe UI', Ubuntu, sans-serif" font-size="11">2026-06-24</text>
  <text x="736" y="208" text-anchor="end" fill="#9aa5ce" font-family="'Segoe UI', Ubuntu, sans-serif" font-size="11">2026-07-24</text>
</svg>