<svg xmlns="http://www.w3.org/2000/svg" width="760" height="220" viewBox="0 0 760 220" fill="none" role="img" aria-label="Contribution Activity — Last 31 Days">
  <rect width="759" height="219" x="0.5" y="0.5" rx="6" fill="#1a1b27" stroke="#2a2c3f"/>
  <text x="24" y="33" fill="#70a5fd" font-family="'Segoe UI', Ubuntu, sans-serif" font-size="16" font-weight="600">Contribution Activity — Last 31 Days</text>
  <path d="M24,190 L24.0,181.6 L47.7,190.0 L71.5,190.0 L95.2,190.0 L118.9,190.0 L142.7,190.0 L166.4,190.0 L190.1,190.0 L213.9,190.0 L237.6,190.0 L261.3,190.0 L285.1,190.0 L308.8,181.6 L332.5,131.3 L356.3,160.6 L380.0,190.0 L403.7,185.8 L427.5,177.4 L451.2,177.4 L474.9,177.4 L498.7,181.6 L522.4,181.6 L546.1,181.6 L569.9,190.0 L593.6,190.0 L617.3,156.5 L641.1,89.4 L664.8,152.3 L688.5,60.0 L712.3,135.5 L736.0,190.0 L736,190 Z" fill="#70a5fd" fill-opacity="0.25"/>
  <polyline points="24.0,181.6 47.7,190.0 71.5,190.0 95.2,190.0 118.9,190.0 142.7,190.0 166.4,190.0 190.1,190.0 213.9,190.0 237.6,190.0 261.3,190.0 285.1,190.0 308.8,181.6 332.5,131.3 356.3,160.6 380.0,190.0 403.7,185.8 427.5,177.4 451.2,177.4 474.9,177.4 498.7,181.6 522.4,181.6 546.1,181.6 569.9,190.0 593.6,190.0 617.3,156.5 641.1,89.4 664.8,152.3 688.5,60.0 712.3,135.5 736.0,190.0" stroke="#70a5fd" stroke-width="2" fill="none"/>
  <text x="24" y="208" fill="#9aa5ce" font-family="'Segoe UI', Ubuntu, sans-serif" font-size="11">2026-06-18</text>
  <text x="736" y="208" text-anchor="end" fill="#9aa5ce" font-family="'Segoe UI', Ubuntu, sans-serif" font-size="11">2026-07-18</text>
</svg>