<svg xmlns="http://www.w3.org/2000/svg" width="760" height="220" viewBox="0 0 760 220" fill="none" role="img" aria-label="Claude Code Usage — Last 30 Days">
  <rect width="759" height="219" x="0.5" y="0.5" rx="6" fill="#1a1b27" stroke="#2a2c3f"/>
  <text x="24" y="33" fill="#70a5fd" font-family="'Segoe UI', Ubuntu, sans-serif" font-size="16" font-weight="600">Claude Code Usage — Last 30 Days</text>
  <rect class="bar" x="24.0" y="146.5" width="31.6" height="43.5" rx="2" fill="#bf91f3"/>
  <rect class="bar" x="59.6" y="134.1" width="31.6" height="55.9" rx="2" fill="#bf91f3"/>
  <rect class="bar" x="95.2" y="92.4" width="31.6" height="97.6" rx="2" fill="#bf91f3"/>
  <rect class="bar" x="130.8" y="175.1" width="31.6" height="14.9" rx="2" fill="#bf91f3"/>
  <rect class="bar" x="166.4" y="189.6" width="31.6" height="0.4" rx="2" fill="#bf91f3"/>
  <rect class="bar" x="202.0" y="166.9" width="31.6" height="23.1" rx="2" fill="#bf91f3"/>
  <rect class="bar" x="237.6" y="115.2" width="31.6" height="74.8" rx="2" fill="#bf91f3"/>
  <rect class="bar" x="273.2" y="186.1" width="31.6" height="3.9" rx="2" fill="#bf91f3"/>
  <rect class="bar" x="308.8" y="178.7" width="31.6" height="11.3" rx="2" fill="#bf91f3"/>
  <rect class="bar" x="344.4" y="107.2" width="31.6" height="82.8" rx="2" fill="#bf91f3"/>
  <rect class="bar" x="380.0" y="175.8" width="31.6" height="14.2" rx="2" fill="#bf91f3"/>
  <rect class="bar" x="415.6" y="168.8" width="31.6" height="21.2" rx="2" fill="#bf91f3"/>
  <rect class="bar" x="451.2" y="60.0" width="31.6" height="130.0" rx="2" fill="#bf91f3"/>
  <rect class="bar" x="486.8" y="113.1" width="31.6" height="76.9" rx="2" fill="#bf91f3"/>
  <rect class="bar" x="522.4" y="60.8" width="31.6" height="129.2" rx="2" fill="#bf91f3"/>
  <rect class="bar" x="558.0" y="179.2" width="31.6" height="10.8" rx="2" fill="#bf91f3"/>
  <rect class="bar" x="593.6" y="84.7" width="31.6" height="105.3" rx="2" fill="#bf91f3"/>
  <rect class="bar" x="629.2" y="163.9" width="31.6" height="26.1" rx="2" fill="#bf91f3"/>
  <rect class="bar" x="664.8" y="148.9" width="31.6" height="41.1" rx="2" fill="#bf91f3"/>
  <rect class="bar" x="700.4" y="61.7" width="31.6" height="128.3" rx="2" fill="#bf91f3"/>
  <text x="736" y="33" text-anchor="end" fill="#9aa5ce" font-family="'Segoe UI', Ubuntu, sans-serif" font-size="13">842.8M tokens / 20 days</text>
  <text x="24" y="208" fill="#9aa5ce" font-family="'Segoe UI', Ubuntu, sans-serif" font-size="11">2026-05-12</text>
  <text x="736" y="208" text-anchor="end" fill="#9aa5ce" font-family="'Segoe UI', Ubuntu, sans-serif" font-size="11">2026-06-10</text>
</svg>