<svg xmlns="http://www.w3.org/2000/svg" width="760" height="220" viewBox="0 0 760 220" fill="none" role="img" aria-label="Claude Code Usage — Last 30 Days">
  <rect width="759" height="219" x="0.5" y="0.5" rx="6" fill="#1a1b27" stroke="#2a2c3f"/>
  <text x="24" y="33" fill="#70a5fd" font-family="'Segoe UI', Ubuntu, sans-serif" font-size="16" font-weight="600">Claude Code Usage — Last 30 Days</text>
  <rect class="bar" x="24.0" y="146.5" width="22.4" height="43.5" rx="2" fill="#bf91f3"/>
  <rect class="bar" x="50.4" y="134.1" width="22.4" height="55.9" rx="2" fill="#bf91f3"/>
  <rect class="bar" x="76.7" y="92.4" width="22.4" height="97.6" rx="2" fill="#bf91f3"/>
  <rect class="bar" x="103.1" y="175.1" width="22.4" height="14.9" rx="2" fill="#bf91f3"/>
  <rect class="bar" x="129.5" y="189.6" width="22.4" height="0.4" rx="2" fill="#bf91f3"/>
  <rect class="bar" x="155.9" y="166.9" width="22.4" height="23.1" rx="2" fill="#bf91f3"/>
  <rect class="bar" x="182.2" y="115.2" width="22.4" height="74.8" rx="2" fill="#bf91f3"/>
  <rect class="bar" x="208.6" y="186.1" width="22.4" height="3.9" rx="2" fill="#bf91f3"/>
  <rect class="bar" x="235.0" y="178.7" width="22.4" height="11.3" rx="2" fill="#bf91f3"/>
  <rect class="bar" x="261.3" y="107.2" width="22.4" height="82.8" rx="2" fill="#bf91f3"/>
  <rect class="bar" x="287.7" y="175.8" width="22.4" height="14.2" rx="2" fill="#bf91f3"/>
  <rect class="bar" x="314.1" y="168.8" width="22.4" height="21.2" rx="2" fill="#bf91f3"/>
  <rect class="bar" x="340.4" y="60.0" width="22.4" height="130.0" rx="2" fill="#bf91f3"/>
  <rect class="bar" x="366.8" y="113.1" width="22.4" height="76.9" rx="2" fill="#bf91f3"/>
  <rect class="bar" x="393.2" y="60.8" width="22.4" height="129.2" rx="2" fill="#bf91f3"/>
  <rect class="bar" x="419.6" y="179.2" width="22.4" height="10.8" rx="2" fill="#bf91f3"/>
  <rect class="bar" x="445.9" y="84.7" width="22.4" height="105.3" rx="2" fill="#bf91f3"/>
  <rect class="bar" x="472.3" y="163.9" width="22.4" height="26.1" rx="2" fill="#bf91f3"/>
  <rect class="bar" x="498.7" y="148.9" width="22.4" height="41.1" rx="2" fill="#bf91f3"/>
  <rect class="bar" x="525.0" y="61.7" width="22.4" height="128.3" rx="2" fill="#bf91f3"/>
  <rect class="bar" x="551.4" y="157.1" width="22.4" height="32.9" rx="2" fill="#bf91f3"/>
  <rect class="bar" x="577.8" y="74.3" width="22.4" height="115.7" rx="2" fill="#bf91f3"/>
  <rect class="bar" x="604.1" y="184.1" width="22.4" height="5.9" rx="2" fill="#bf91f3"/>
  <rect class="bar" x="630.5" y="166.1" width="22.4" height="23.9" rx="2" fill="#bf91f3"/>
  <rect class="bar" x="656.9" y="149.5" width="22.4" height="40.5" rx="2" fill="#bf91f3"/>
  <rect class="bar" x="683.3" y="162.9" width="22.4" height="27.1" rx="2" fill="#bf91f3"/>
  <rect class="bar" x="709.6" y="130.1" width="22.4" height="59.9" rx="2" fill="#bf91f3"/>
  <text x="736" y="33" text-anchor="end" fill="#9aa5ce" font-family="'Segoe UI', Ubuntu, sans-serif" font-size="13">1078.9M tokens / 27 days</text>
  <text x="24" y="208" fill="#9aa5ce" font-family="'Segoe UI', Ubuntu, sans-serif" font-size="11">2026-05-12</text>
  <text x="736" y="208" text-anchor="end" fill="#9aa5ce" font-family="'Segoe UI', Ubuntu, sans-serif" font-size="11">2026-06-18</text>
</svg>