<svg xmlns="http://www.w3.org/2000/svg" width="760" height="220" viewBox="0 0 760 220" fill="none" role="img" aria-label="Claude Code Usage — Last 30 Days">
  <rect width="759" height="219" x="0.5" y="0.5" rx="6" fill="#1a1b27" stroke="#2a2c3f"/>
  <text x="24" y="33" fill="#70a5fd" font-family="'Segoe UI', Ubuntu, sans-serif" font-size="16" font-weight="600">Claude Code Usage — Last 30 Days</text>
  <rect class="bar" x="24.0" y="165.2" width="20.6" height="24.8" rx="2" fill="#bf91f3"/>
  <rect class="bar" x="48.6" y="158.1" width="20.6" height="31.9" rx="2" fill="#bf91f3"/>
  <rect class="bar" x="73.1" y="134.4" width="20.6" height="55.6" rx="2" fill="#bf91f3"/>
  <rect class="bar" x="97.7" y="181.5" width="20.6" height="8.5" rx="2" fill="#bf91f3"/>
  <rect class="bar" x="122.2" y="189.8" width="20.6" height="0.2" rx="2" fill="#bf91f3"/>
  <rect class="bar" x="146.8" y="176.8" width="20.6" height="13.2" rx="2" fill="#bf91f3"/>
  <rect class="bar" x="171.3" y="147.4" width="20.6" height="42.6" rx="2" fill="#bf91f3"/>
  <rect class="bar" x="195.9" y="187.8" width="20.6" height="2.2" rx="2" fill="#bf91f3"/>
  <rect class="bar" x="220.4" y="183.5" width="20.6" height="6.5" rx="2" fill="#bf91f3"/>
  <rect class="bar" x="245.0" y="142.8" width="20.6" height="47.2" rx="2" fill="#bf91f3"/>
  <rect class="bar" x="269.5" y="181.9" width="20.6" height="8.1" rx="2" fill="#bf91f3"/>
  <rect class="bar" x="294.1" y="177.9" width="20.6" height="12.1" rx="2" fill="#bf91f3"/>
  <rect class="bar" x="318.6" y="160.4" width="20.6" height="29.6" rx="2" fill="#bf91f3"/>
  <rect class="bar" x="343.2" y="146.2" width="20.6" height="43.8" rx="2" fill="#bf91f3"/>
  <rect class="bar" x="367.7" y="116.4" width="20.6" height="73.6" rx="2" fill="#bf91f3"/>
  <rect class="bar" x="392.3" y="183.8" width="20.6" height="6.2" rx="2" fill="#bf91f3"/>
  <rect class="bar" x="416.8" y="130.1" width="20.6" height="59.9" rx="2" fill="#bf91f3"/>
  <rect class="bar" x="441.4" y="175.2" width="20.6" height="14.8" rx="2" fill="#bf91f3"/>
  <rect class="bar" x="465.9" y="166.6" width="20.6" height="23.4" rx="2" fill="#bf91f3"/>
  <rect class="bar" x="490.5" y="116.9" width="20.6" height="73.1" rx="2" fill="#bf91f3"/>
  <rect class="bar" x="515.0" y="171.2" width="20.6" height="18.8" rx="2" fill="#bf91f3"/>
  <rect class="bar" x="539.6" y="124.1" width="20.6" height="65.9" rx="2" fill="#bf91f3"/>
  <rect class="bar" x="564.1" y="186.7" width="20.6" height="3.3" rx="2" fill="#bf91f3"/>
  <rect class="bar" x="588.7" y="176.4" width="20.6" height="13.6" rx="2" fill="#bf91f3"/>
  <rect class="bar" x="613.2" y="166.9" width="20.6" height="23.1" rx="2" fill="#bf91f3"/>
  <rect class="bar" x="637.8" y="174.6" width="20.6" height="15.4" rx="2" fill="#bf91f3"/>
  <rect class="bar" x="662.3" y="155.9" width="20.6" height="34.1" rx="2" fill="#bf91f3"/>
  <rect class="bar" x="686.9" y="74.0" width="20.6" height="116.0" rx="2" fill="#bf91f3"/>
  <rect class="bar" x="711.4" y="60.0" width="20.6" height="130.0" rx="2" fill="#bf91f3"/>
  <text x="736" y="33" text-anchor="end" fill="#9aa5ce" font-family="'Segoe UI', Ubuntu, sans-serif" font-size="13">1352.2M tokens / 29 days</text>
  <text x="24" y="208" fill="#9aa5ce" font-family="'Segoe UI', Ubuntu, sans-serif" font-size="11">2026-05-12</text>
  <text x="736" y="208" text-anchor="end" fill="#9aa5ce" font-family="'Segoe UI', Ubuntu, sans-serif" font-size="11">2026-07-01</text>
</svg>