<svg xmlns="http://www.w3.org/2000/svg" width="300" height="222" viewBox="0 0 300 222" fill="none" role="img" aria-label="Most Used Languages">
  <rect width="299" height="221" x="0.5" y="0.5" rx="6" fill="#1a1b27" stroke="#2a2c3f"/>
  <text x="24" y="33" fill="#70a5fd" font-family="'Segoe UI', Ubuntu, sans-serif" font-size="16" font-weight="600">Most Used Languages</text>
  <rect x="24.0" y="52" width="87.7" height="8" fill="#DA5B0B"/>
  <rect x="111.7" y="52" width="80.1" height="8" fill="#3178c6"/>
  <rect x="191.8" y="52" width="56.2" height="8" fill="#3572A5"/>
  <rect x="248.0" y="52" width="18.2" height="8" fill="#355570"/>
  <rect x="266.2" y="52" width="7.7" height="8" fill="#f1e05a"/>
  <rect x="273.9" y="52" width="2.1" height="8" fill="#178600"/>
  <circle cx="29" cy="76" r="5" fill="#DA5B0B"/>
  <text x="42" y="80" fill="#38bdae" font-family="'Segoe UI', Ubuntu, sans-serif" font-size="13">Jupyter Notebook 34.8%</text>
  <circle cx="29" cy="98" r="5" fill="#3178c6"/>
  <text x="42" y="102" fill="#38bdae" font-family="'Segoe UI', Ubuntu, sans-serif" font-size="13">TypeScript 31.8%</text>
  <circle cx="29" cy="120" r="5" fill="#3572A5"/>
  <text x="42" y="124" fill="#38bdae" font-family="'Segoe UI', Ubuntu, sans-serif" font-size="13">Python 22.3%</text>
  <circle cx="29" cy="142" r="5" fill="#355570"/>
  <text x="42" y="146" fill="#38bdae" font-family="'Segoe UI', Ubuntu, sans-serif" font-size="13">GDScript 7.2%</text>
  <circle cx="29" cy="164" r="5" fill="#f1e05a"/>
  <text x="42" y="168" fill="#38bdae" font-family="'Segoe UI', Ubuntu, sans-serif" font-size="13">JavaScript 3.1%</text>
  <circle cx="29" cy="186" r="5" fill="#178600"/>
  <text x="42" y="190" fill="#38bdae" font-family="'Segoe UI', Ubuntu, sans-serif" font-size="13">C# 0.8%</text>
</svg>