<svg xmlns="http://www.w3.org/2000/svg" width="300" height="222" viewBox="0 0 300 222" fill="none" role="img" aria-label="Most Used Languages">
  <rect width="299" height="221" x="0.5" y="0.5" rx="6" fill="#1a1b27" stroke="#2a2c3f"/>
  <text x="24" y="33" fill="#70a5fd" font-family="'Segoe UI', Ubuntu, sans-serif" font-size="16" font-weight="600">Most Used Languages</text>
  <rect x="24.0" y="52" width="92.7" height="8" fill="#DA5B0B"/>
  <rect x="116.7" y="52" width="88.4" height="8" fill="#3178c6"/>
  <rect x="205.1" y="52" width="59.4" height="8" fill="#3572A5"/>
  <rect x="264.5" y="52" width="8.0" height="8" fill="#f1e05a"/>
  <rect x="272.4" y="52" width="2.2" height="8" fill="#178600"/>
  <rect x="274.6" y="52" width="1.4" height="8" fill="#663399"/>
  <circle cx="29" cy="76" r="5" fill="#DA5B0B"/>
  <text x="42" y="80" fill="#38bdae" font-family="'Segoe UI', Ubuntu, sans-serif" font-size="13">Jupyter Notebook 36.8%</text>
  <circle cx="29" cy="98" r="5" fill="#3178c6"/>
  <text x="42" y="102" fill="#38bdae" font-family="'Segoe UI', Ubuntu, sans-serif" font-size="13">TypeScript 35.1%</text>
  <circle cx="29" cy="120" r="5" fill="#3572A5"/>
  <text x="42" y="124" fill="#38bdae" font-family="'Segoe UI', Ubuntu, sans-serif" font-size="13">Python 23.6%</text>
  <circle cx="29" cy="142" r="5" fill="#f1e05a"/>
  <text x="42" y="146" fill="#38bdae" font-family="'Segoe UI', Ubuntu, sans-serif" font-size="13">JavaScript 3.2%</text>
  <circle cx="29" cy="164" r="5" fill="#178600"/>
  <text x="42" y="168" fill="#38bdae" font-family="'Segoe UI', Ubuntu, sans-serif" font-size="13">C# 0.9%</text>
  <circle cx="29" cy="186" r="5" fill="#663399"/>
  <text x="42" y="190" fill="#38bdae" font-family="'Segoe UI', Ubuntu, sans-serif" font-size="13">CSS 0.5%</text>
</svg>