<svg xmlns="http://www.w3.org/2000/svg" width="760" height="220" viewBox="0 0 760 220" fill="none" role="img" aria-label="Lines of Code Changed — Last 31 Days">
  <rect width="759" height="219" x="0.5" y="0.5" rx="6" fill="#1a1b27" stroke="#2a2c3f"/>
  <text x="24" y="33" fill="#70a5fd" font-family="'Segoe UI', Ubuntu, sans-serif" font-size="16" font-weight="600">Lines of Code Changed — Last 31 Days</text>
  <rect class="bar" x="24.0" y="190.0" width="19.0" height="0.0" rx="2" fill="#38bdae"/>
  <rect class="bar" x="47.0" y="190.0" width="19.0" height="0.0" rx="2" fill="#38bdae"/>
  <rect class="bar" x="69.9" y="190.0" width="19.0" height="0.0" rx="2" fill="#38bdae"/>
  <rect class="bar" x="92.9" y="190.0" width="19.0" height="0.0" rx="2" fill="#38bdae"/>
  <rect class="bar" x="115.9" y="190.0" width="19.0" height="0.0" rx="2" fill="#38bdae"/>
  <rect class="bar" x="138.8" y="190.0" width="19.0" height="0.0" rx="2" fill="#38bdae"/>
  <rect class="bar" x="161.8" y="177.0" width="19.0" height="13.0" rx="2" fill="#38bdae"/>
  <rect class="bar" x="184.8" y="177.7" width="19.0" height="12.3" rx="2" fill="#38bdae"/>
  <rect class="bar" x="207.7" y="177.6" width="19.0" height="12.4" rx="2" fill="#38bdae"/>
  <rect class="bar" x="230.7" y="190.0" width="19.0" height="0.0" rx="2" fill="#38bdae"/>
  <rect class="bar" x="253.7" y="176.2" width="19.0" height="13.8" rx="2" fill="#38bdae"/>
  <rect class="bar" x="276.6" y="177.8" width="19.0" height="12.2" rx="2" fill="#38bdae"/>
  <rect class="bar" x="299.6" y="132.5" width="19.0" height="57.5" rx="2" fill="#38bdae"/>
  <rect class="bar" x="322.6" y="188.7" width="19.0" height="1.3" rx="2" fill="#38bdae"/>
  <rect class="bar" x="345.5" y="166.2" width="19.0" height="23.8" rx="2" fill="#38bdae"/>
  <rect class="bar" x="368.5" y="185.5" width="19.0" height="4.5" rx="2" fill="#38bdae"/>
  <rect class="bar" x="391.5" y="185.1" width="19.0" height="4.9" rx="2" fill="#38bdae"/>
  <rect class="bar" x="414.5" y="190.0" width="19.0" height="0.0" rx="2" fill="#38bdae"/>
  <rect class="bar" x="437.4" y="190.0" width="19.0" height="0.0" rx="2" fill="#38bdae"/>
  <rect class="bar" x="460.4" y="153.5" width="19.0" height="36.5" rx="2" fill="#38bdae"/>
  <rect class="bar" x="483.4" y="178.8" width="19.0" height="11.2" rx="2" fill="#38bdae"/>
  <rect class="bar" x="506.3" y="158.1" width="19.0" height="31.9" rx="2" fill="#38bdae"/>
  <rect class="bar" x="529.3" y="179.9" width="19.0" height="10.1" rx="2" fill="#38bdae"/>
  <rect class="bar" x="552.3" y="152.2" width="19.0" height="37.8" rx="2" fill="#38bdae"/>
  <rect class="bar" x="575.2" y="180.6" width="19.0" height="9.4" rx="2" fill="#38bdae"/>
  <rect class="bar" x="598.2" y="182.4" width="19.0" height="7.6" rx="2" fill="#38bdae"/>
  <rect class="bar" x="621.2" y="189.7" width="19.0" height="0.3" rx="2" fill="#38bdae"/>
  <rect class="bar" x="644.1" y="93.4" width="19.0" height="96.6" rx="2" fill="#38bdae"/>
  <rect class="bar" x="667.1" y="60.0" width="19.0" height="130.0" rx="2" fill="#38bdae"/>
  <rect class="bar" x="690.1" y="173.1" width="19.0" height="16.9" rx="2" fill="#38bdae"/>
  <rect class="bar" x="713.0" y="189.7" width="19.0" height="0.3" rx="2" fill="#38bdae"/>
  <text x="736" y="33" text-anchor="end" fill="#9aa5ce" font-family="'Segoe UI', Ubuntu, sans-serif" font-size="13">187.2k lines / 31 days</text>
  <text x="24" y="208" fill="#9aa5ce" font-family="'Segoe UI', Ubuntu, sans-serif" font-size="11">2026-06-24</text>
  <text x="736" y="208" text-anchor="end" fill="#9aa5ce" font-family="'Segoe UI', Ubuntu, sans-serif" font-size="11">2026-07-24</text>
</svg>